<?xml version="1.0" encoding="utf-8"?>
<!-- Generator: Adobe Illustrator 21.0.0, SVG Export Plug-In . SVG Version: 6.00 Build 0)  -->
<svg version="1.1" id="linkedin" xmlns="http://www.w3.org/2000/svg" xmlns:xlink="http://www.w3.org/1999/xlink" x="0px" y="0px"
	 viewBox="0 0 15.5 14.8" width="16px" style="enable-background:new 0 0 15.5 14.8;" xml:space="preserve">
<style type="text/css">
	.st0{fill:#BDBDBD;}
</style>
<title>icon-linkedin</title>
<path class="st0" d="M15.5,9.1v5.7h-3.3V9.5c0-1.3-0.5-2.3-1.7-2.3C9.7,7.2,9,7.7,8.8,8.4C8.7,8.7,8.7,9,8.7,9.2v5.6H5.4
	c0,0,0-9.1,0-10h3.3v1.4l0,0l0,0l0,0c0.6-1.1,1.8-1.7,3-1.7C13.9,4.6,15.5,6,15.5,9.1L15.5,9.1z M1.9,0C0.9-0.1,0.1,0.7,0,1.6
	s0.6,1.8,1.6,1.9c0.1,0,0.1,0,0.2,0l0,0c1,0.1,1.8-0.6,1.9-1.6S3,0.1,2.1,0C2,0,1.9,0,1.9,0z M0.2,14.8h3.3v-10H0.2V14.8z"/>
</svg>
